<svg xmlns="http://www.w3.org/2000/svg" viewBox="0 0 452.85 22.69"><defs><style>.cls-1{fill:#c6a68a;}</style></defs><g id="Layer_2" data-name="Layer 2"><g id="Layer_1-2" data-name="Layer 1"><path class="cls-1" d="M14.29,18.19a6.69,6.69,0,0,1-2.85.59,6.94,6.94,0,0,1-5.11-2.11,7.82,7.82,0,0,1-1.64-2.49A7.35,7.35,0,0,1,4.1,11.3a7.94,7.94,0,0,1,.48-2.68A7.65,7.65,0,0,1,5.91,6.3a6.77,6.77,0,0,1,5.44-2.39,7.2,7.2,0,0,1,4.16,1.17,6.87,6.87,0,0,1,1.59,1.6h4.55a12.77,12.77,0,0,0-1.32-2.35,10.53,10.53,0,0,0-1.8-1.8A11.23,11.23,0,0,0,11.26,0,11.11,11.11,0,0,0,1.75,5.26a11,11,0,0,0-1.75,6,11.12,11.12,0,0,0,1.16,5,11.41,11.41,0,0,0,2.56,3.46,11,11,0,0,0,7.8,3,10.91,10.91,0,0,0,10.13-6.5H16.88a9.28,9.28,0,0,1-2.59,2"/><path class="cls-1" d="M77.63,14.19a10.77,10.77,0,0,0,2-.67,6.29,6.29,0,0,0,1.45-.94,6.38,6.38,0,0,0,2.26-5.17,7.27,7.27,0,0,0-1-3.85A6.19,6.19,0,0,0,79,.86,12.33,12.33,0,0,0,75.05.39H68.74V22.3h4.07V13.92l5.74,8.38h5Zm-4.82-3.35V4.27h1.82c1.77,0,3,.25,3.56.76a3,3,0,0,1,1.07,2.49,3.22,3.22,0,0,1-.84,2.35c-.63.65-1.84,1-3.62,1Z"/><polygon class="cls-1" points="142.58 4.27 142.58 0.39 130.82 0.39 130.82 22.3 142.58 22.3 142.58 18.42 134.88 18.42 134.88 13.3 142.27 13.3 142.27 9.43 134.88 9.43 134.88 4.27 142.58 4.27"/><path class="cls-1" d="M201.32.39h-3.2L189,22.3h4.48l2.43-5.66h7.79L206,22.3h4.49Zm-3.95,12.36,2.34-6.64,2.36,6.64Z"/><polygon class="cls-1" points="254.17 0.39 254.17 4.27 258.24 4.27 258.24 22.3 262.31 22.3 262.31 4.27 266.37 4.27 266.37 0.39 254.17 0.39"/><rect class="cls-1" x="312.92" y="0.39" width="4.07" height="21.91"/><path class="cls-1" d="M386.19,6.17A11.21,11.21,0,0,0,382,1.65,11.12,11.12,0,0,0,376.14,0a11.66,11.66,0,0,0-5.35,1.21,10.87,10.87,0,0,0-4.55,4.2,11.38,11.38,0,0,0-.44,11.08A11,11,0,0,0,370,21a11.52,11.52,0,0,0,6.11,1.67,11.29,11.29,0,0,0,5.12-1.16,10.73,10.73,0,0,0,4.55-4.23,11.36,11.36,0,0,0,1.63-6,11.38,11.38,0,0,0-1.22-5.18m-3.43,8.11a7,7,0,0,1-1.51,2.4,6.87,6.87,0,0,1-5.17,2.1A7.49,7.49,0,0,1,372.7,18a6.92,6.92,0,0,1-2.95-2.75,7.62,7.62,0,0,1-.52-6.78A7.19,7.19,0,0,1,370.81,6a7.44,7.44,0,0,1,8.53-1.35,6.79,6.79,0,0,1,2.92,2.74,7.75,7.75,0,0,1,1,4,8,8,0,0,1-.54,2.9"/><polygon class="cls-1" points="448.79 0.39 448.79 16.34 439.72 0.39 435.08 0.39 435.08 22.3 439.16 22.3 439.16 6.38 448.31 22.3 452.86 22.3 452.86 0.39 448.79 0.39"/></g></g></svg>