<svg xmlns="http://www.w3.org/2000/svg" viewBox="0 0 72.44 71.53"><defs><style>.cls-1{fill:#c6a68a;}</style></defs><g id="Layer_2" data-name="Layer 2"><g id="Layer_1-2" data-name="Layer 1"><polygon class="cls-1" points="29.72 13.66 29.34 13.28 41.96 0 43.1 1.15 29.72 13.66"/><polygon class="cls-1" points="37.67 12.77 37.44 12.28 53.85 4.12 54.52 5.59 37.67 12.77"/><polygon class="cls-1" points="45.45 14.65 45.4 14.12 63.61 12.06 63.74 13.67 45.45 14.65"/><polygon class="cls-1" points="52.11 19.08 52.25 18.56 70.06 22.86 69.64 24.42 52.11 19.08"/><polygon class="cls-1" points="56.86 25.52 57.17 25.08 72.44 35.21 71.5 36.53 56.86 25.52"/><polygon class="cls-1" points="59.12 33.2 59.56 32.89 70.44 47.63 69.11 48.55 59.12 33.2"/><polygon class="cls-1" points="58.61 41.19 59.13 41.05 64.32 58.62 62.76 59.03 58.61 41.19"/><polygon class="cls-1" points="55.41 48.52 55.95 48.57 54.81 66.85 53.2 66.71 55.41 48.52"/><polygon class="cls-1" points="49.89 54.31 50.38 54.54 43.05 71.34 41.59 70.65 49.89 54.31"/><polygon class="cls-1" points="42.72 57.87 43.1 58.25 30.48 71.53 29.34 70.38 42.72 57.87"/><polygon class="cls-1" points="34.77 58.76 34.99 59.25 18.59 67.41 17.91 65.94 34.77 58.76"/><polygon class="cls-1" points="26.99 56.88 27.04 57.41 8.83 59.47 8.7 57.86 26.99 56.88"/><polygon class="cls-1" points="20.33 52.45 20.18 52.97 2.37 48.68 2.8 47.12 20.33 52.45"/><polygon class="cls-1" points="15.58 46.01 15.27 46.45 0 36.32 0.93 35 15.58 46.01"/><polygon class="cls-1" points="13.32 38.33 12.88 38.64 1.99 23.9 3.32 22.98 13.32 38.33"/><polygon class="cls-1" points="13.82 30.34 13.3 30.48 8.12 12.91 9.68 12.5 13.82 30.34"/><polygon class="cls-1" points="17.03 23.01 16.49 22.96 17.63 4.68 19.24 4.83 17.03 23.01"/><polygon class="cls-1" points="22.55 17.22 22.06 16.99 29.38 0.19 30.84 0.88 22.55 17.22"/><polygon class="cls-1" points="29.72 13.66 29.34 13.28 41.96 0 43.1 1.15 29.72 13.66"/><path class="cls-1" d="M36.22,48.79A12.26,12.26,0,1,1,48.48,36.53,12.27,12.27,0,0,1,36.22,48.79"/></g></g></svg>