<svg xmlns="http://www.w3.org/2000/svg" xmlns:xlink="http://www.w3.org/1999/xlink" viewBox="0 0 38.61 38.61"><defs><style>.cls-1{fill:none;}.cls-2{opacity:0.35;}.cls-3{clip-path:url(#clip-path);}</style><clipPath id="clip-path" transform="translate(0 0)"><rect class="cls-1" width="38.61" height="38.61"/></clipPath></defs><g id="Layer_2" data-name="Layer 2"><g id="Layer_1-2" data-name="Layer 1"><g class="cls-2"><g class="cls-3"><path d="M38.59,10.72a11.29,11.29,0,0,0-.25-2.46A10.38,10.38,0,0,0,28.11,0c-2.91,0-5.83,0-8.74,0H10.71A10.44,10.44,0,0,0,0,10.67Q0,19.3,0,27.92A10.44,10.44,0,0,0,10.69,38.6H27.94A10.44,10.44,0,0,0,38.6,27.9q0-8.58,0-17.18M36.33,27.81a8.18,8.18,0,0,1-8.54,8.52q-8.47,0-16.95,0a8.19,8.19,0,0,1-8.56-8.58q0-8.47,0-16.95a8.19,8.19,0,0,1,8.54-8.53h17a8.19,8.19,0,0,1,8.49,8.51q0,8.52,0,17m-17-19.06a10.55,10.55,0,1,0,10.48,10.6A10.58,10.58,0,0,0,19.37,8.75m-.11,18.84a8.29,8.29,0,1,1,8.33-8.24,8.32,8.32,0,0,1-8.33,8.24M30.14,5A3.17,3.17,0,0,0,27,8.1a3.13,3.13,0,0,0,3.09,3.13A3.12,3.12,0,0,0,30.14,5m0,5.06A1.95,1.95,0,1,1,32,8.12a1.94,1.94,0,0,1-1.94,1.94" transform="translate(0 0)"/></g></g></g></g></svg>