<svg xmlns="http://www.w3.org/2000/svg" viewBox="0 0 98.96 112.34"><defs><style>.cls-1{fill:#c6a68a;}</style></defs><g id="Layer_2" data-name="Layer 2"><g id="Layer_1-2" data-name="Layer 1"><path class="cls-1" d="M80.61,62l-.5.29,16.64,31.6.08,0c.73-.77,1.44-1.56,2.13-2.39ZM79,65.56l12,33.51c.86-.67,1.7-1.38,2.52-2.11l-14-31.61Zm-1.51,3.09,7.23,34.7c.94-.54,1.87-1.11,2.78-1.72L78.1,68.51ZM75.61,71.5l2.31,35.19c1-.41,2-.84,3-1.31L76.18,71.44ZM70.71,109c1.05-.25,2.09-.55,3.12-.87l0-34.07-.58,0Zm0-32.76-7.39,34.08c1.07-.11,2.14-.26,3.2-.44l4.77-33.53Zm-2.91,1.82-12,32.54c1.07,0,2.14,0,3.21,0L68.3,78.26ZM64.6,79.47,48.29,109.85c1.05.19,2.11.34,3.17.45L65.12,79.73ZM50.54,112.34l.21-.46c-.52-.06-1-.13-1.55-.21ZM61.29,80.42,41,108.07c1,.33,2,.62,3,.88L61.77,80.74ZM42.8,111l.37-.58c-.71-.19-1.42-.39-2.13-.62Zm-7.48-2.39.57-.69c-.89-.37-1.77-.77-2.65-1.2ZM57.89,80.89,34.11,105.31c1,.46,1.93.89,2.9,1.29L58.32,81.28Zm-3.44,0L27.66,101.63c.88.59,1.78,1.15,2.68,1.67l24.48-22ZM26.22,102.75l2,2.44.82-.73c-.94-.55-1.86-1.14-2.77-1.76ZM51,80.41,21.88,97.08c.75.71,1.53,1.39,2.34,2L51.35,80.9ZM20,98.13l1.67,2.69,1.08-.73c-.83-.69-1.64-1.41-2.41-2.15Zm-5.47-5.44,1.28,2.9,1.58-.77c-.69-.8-1.35-1.63-2-2.48ZM47.74,79.45,17,91.71c.61.81,1.25,1.6,1.92,2.36L48,80ZM9.91,86.54l.86,3,2.34-.76c-.53-.88-1-1.79-1.5-2.7Zm34.85-7.93-.16-.56L13.26,85.72c.45.88.94,1.75,1.46,2.59ZM11.57,82.08,41.76,76.8l-.07-.58L10.57,79.36c.3.92.63,1.82,1,2.72M6.15,79.81l.43,3.13,3.32-.58c-.37-.93-.71-1.87-1-2.83ZM9.5,75.58l29.55-1V74L9,72.83c.15.92.33,1.84.54,2.75M7.28,72.77l-3.91-.16,0,3.17,4.47-.15c-.21-.95-.39-1.9-.54-2.86M6.74,66,1.61,65.1l-.46,3.13,5.69.61c-.06-.94-.1-1.87-.1-2.81m1.77,3,28.16,3,.09-.57L8.39,66.33c0,.89,0,1.79.12,2.69M7.2,59.49.92,57.42l-.89,3,6.86,1.72c.07-.9.18-1.8.31-2.69m1.31,3.1,26.17,6.56.15-.55L8.79,60c-.12.86-.21,1.71-.28,2.58m.92-6.16L33.09,66l.24-.53L10.05,54c-.23.79-.43,1.59-.62,2.4m-.88-3.14L1.3,49.71,0,52.6l7.89,3.2c.19-.84.42-1.68.66-2.51m2.63-2.62L32,62.72l.31-.49L12.08,48.49c-.32.72-.62,1.45-.9,2.18m-.49-3.13-7.94-5.4L1.06,44.81l8.67,5c.3-.78.62-1.54,1-2.3m2.92-2.13,17.7,13.87.37-.44L14.74,43.46c-.4.65-.78,1.29-1.13,1.95m-.11-3.08L5.24,34.84,3.19,37.25l9.1,7.13c.38-.69.78-1.37,1.21-2.05m3.1-1.63L31.13,55.79l.44-.39L17.93,39c-.46.54-.9,1.1-1.33,1.68m.26-3L8.73,28,6.36,30.06l9.08,9.43c.46-.6.93-1.19,1.42-1.76m3.26-1.06L31.45,52.31l.48-.33L21.6,35.3c-.5.43-1,.89-1.48,1.37m.61-2.79-7.6-12.26L10.5,23.38l8.64,11.93c.52-.5,1.05-1,1.59-1.43m3.3-.49L32.24,48.9l.53-.25L25.58,32.33c-.53.34-1,.69-1.55,1.06m.88-2.58L18.38,16l-2.86,1.38,7.73,14.58c.54-.39,1.1-.76,1.66-1.11m4.36-2.31L24.36,11.09l-3,1L27.59,29.3c.55-.28,1.12-.55,1.68-.8m4.79,17L29.72,30.1c-.53.24-1,.49-1.57.76L33.5,45.64Zm1.15-2.88.57-.09-1.9-14c-.51.15-1,.32-1.53.5Zm-1.55-15.7L31,7.1l-3.12.53L32,27.42c.55-.2,1.09-.38,1.65-.54m4.24,12.9L38,27.58c-.49.08-1,.17-1.45.28l.82,11.93ZM38,25.9l.09-21.83-3.16.09,1.5,22c.52-.11,1-.2,1.57-.29M45.5,2.05,42.35,1.7,40.64,25.56q.73-.06,1.47-.09ZM41.87,27.13c-.45,0-.9.06-1.35.1l-.72,10.1.58.06ZM46,25.51,53.15,1.09,50.08.31,44.7,25.44c.44,0,.89,0,1.34.07M42.6,35.23l.57.15,2.4-8.25-1.22-.05Zm3.07-1.69.53.22L49,27.5l-1.09-.16Zm4-7.6h0L60.87,1.2,57.93,0,48.52,25.76q.6.07,1.2.18m2.51,2.23-1-.24h0L48.94,32.3l.5.29Zm.92-1.46L68.49,2.39,65.75.79,52.07,26.43c.36.08.72.18,1.08.28m3.15,1L75.87,4.62l-2.49-2-18,24.74.95.35m-3.5,4.13,2.37-2.8-.83-.29-2,2.73ZM59.19,29,82.87,7.86,80.68,5.57l-22.32,23,.83.39m-3,2.65,1.63-1.46-.71-.32-1.32,1.36Zm3.43.24.65-.44-.6-.33-.39.3Zm2.17-1.45L89.35,12,87.51,9.47,61.12,30c.24.14.48.27.71.42m1.9,1.22.51.36,31-14.93-1.47-2.8L63.63,31.59l.1.07"/></g></g></svg>