<?xml version="1.0" encoding="utf-8"?>
<!-- Generator: Adobe Illustrator 26.0.3, SVG Export Plug-In . SVG Version: 6.00 Build 0) -->
<svg version="1.1" id="Layer_1" xmlns="http://www.w3.org/2000/svg" xmlns:xlink="http://www.w3.org/1999/xlink" x="0px" y="0px" viewBox="0 0 1080 377.3" style="enable-background:new 0 0 1080 377.3;" xml:space="preserve">
	<style type="text/css">
		.st0{fill:#AD8363;}
	</style>
	<g>
		<path class="st0" d="M389.8,22.9c7.2,0,13.6,1.2,19,3.5c5.5,2.3,10,5.3,13.7,9s6.5,7.9,8.4,12.5c1.9,4.7,2.8,9.4,2.8,14
		c0,5.9-1.4,11.7-4.1,17.3c-2.7,5.6-6.5,10.6-11.4,15c-4.8,4.4-10.6,7.9-17.3,10.6c-6.7,2.7-13.9,4-21.7,4c-7.2,0-14.1-0.7-20.6-2.2
		c-6.5-1.4-12.6-3.4-18.5-5.9c-5.9-2.5-11.6-5.5-17-8.9c-5.5-3.4-10.8-7.1-15.9-11.1c-4.5,5.7-8.7,11.4-12.7,17
		c-4,5.7-8,11.3-11.9,16.9c-6,8.7-11.2,16.4-15.5,23.2c-4.3,6.8-7.9,13-10.9,18.5c2.7-2.9,5.6-5.9,8.7-9c3.1-3.1,6.3-6.1,9.5-9
		c1.9-1.7,4.1-3.5,6.6-5.4c2.5-1.9,5.2-3.8,7.9-5.6c2.8-1.8,5.6-3.3,8.5-4.4c2.9-1.2,5.7-1.8,8.4-1.8c2.6,0,4.8,0.8,6.6,2.3
		c1.8,1.6,2.8,3.8,2.8,6.7c0,2.2-0.5,4.7-1.5,7.5c-1,2.8-2.3,5.7-4,8.9c-1.6,3.1-3.5,6.4-5.6,9.8c-2.1,3.4-4.2,6.8-6.5,10.3
		l-5.1,7.7c-1.8,2.8-3.6,5.5-5.3,8.3c-1.7,2.7-3.3,5.3-4.7,7.7c-1.4,2.4-2.5,4.6-3.4,6.5c-0.8,2-1.3,3.5-1.3,4.6
		c0,0.9,0.6,1.3,1.8,1.3c3.6,0,7.7-1.7,12.4-5c4.7-3.3,9.4-7.5,14.2-12.5c2.8-2.9,5.7-6.2,8.9-10c3.1-3.8,6.1-7.5,9-11.2l2.2,2.5
		c-2.9,3.6-5.9,7.2-8.9,10.9c-3.1,3.7-6,7-8.8,9.9c-2.6,2.7-5.1,5.2-7.7,7.4c-2.6,2.3-5.1,4.3-7.7,5.9c-2.6,1.7-5.1,3-7.5,4
		c-2.5,1-4.7,1.5-6.9,1.5c-5.8,0-10-0.9-12.4-2.8c-2.4-1.9-3.6-4.5-3.6-7.7c0-2.4,0.6-5.1,1.8-8c1.2-2.9,2.7-5.9,4.5-9
		c1.8-3.1,4-6.3,6.3-9.6c2.4-3.3,4.9-6.5,7.4-9.8l6.5-8.2c1.9-2.3,3.8-4.8,5.8-7.4c2-2.6,3.8-5.1,5.4-7.4c1.6-2.3,3-4.4,4-6.3
		c1.1-1.8,1.6-3.2,1.6-4.1c0-0.9-0.6-1.3-1.7-1.3c-2.1,0-4.5,0.6-7.1,1.8c-2.6,1.2-5.2,2.6-7.8,4.3c-2.6,1.7-5.1,3.5-7.5,5.4
		c-2.4,1.9-4.4,3.6-6.1,5c-2.6,2.2-5,4.6-7.4,7c-2.4,2.4-4.7,4.8-6.9,7.2c-2.2,2.3-4.3,4.6-6.3,6.8c-1.9,2.2-3.8,4.2-5.4,5.9v-0.2
		c-3.7,7-7.5,13.8-11.5,20.4c-4,6.6-8,12.6-11.8,18h-21.4c5.6-7.6,11.1-15.3,16.5-23.3c5.5-8,10.7-15.7,15.7-23.3
		c9.8-14.6,19.7-29,29.7-43.2c10-14.2,21.1-27.8,33.1-40.9c-3.9-3.2-7.8-6.6-11.6-10.1c-3.8-3.5-7.6-6.9-11.3-10.3
		c-7,4.7-13.6,10.4-19.6,17.1c-6.1,6.7-11.7,14-16.8,21.6c-5.1,7.7-9.9,15.5-14.3,23.4c-4.4,7.9-8.4,15.4-12.1,22.4l-8.9,16.4
		c-7.2,12.6-14.7,23.9-22.3,33.8c-7.6,10-16.2,18.4-25.7,25.3c-9.5,6.9-20.2,12.2-32.1,15.8c-11.9,3.6-25.7,5.4-41.5,5.4
		c-11.3,0-22-1.5-32.2-4.5c-10.2-3-19.2-7.6-26.9-13.9c-7.7-6.2-13.9-14.1-18.5-23.6S0,173.8,0,160.9c0-11.1,2-22.1,5.9-32.8
		c4-10.7,9.4-20.8,16.2-30.1s14.9-17.6,24.2-24.9c9.2-7.3,19.1-13.1,29.6-17.5c9.5-3.6,18.9-5.8,28.3-6.7c4.3-7.4,9.4-14,15-20
		c5.7-6,12-11.2,18.8-15.5c6.9-4.3,14.2-7.6,22.1-9.9c7.9-2.3,16.2-3.5,24.9-3.5c9.7,0,18.8,1.5,27.2,4.4c8.5,3,16.5,6.8,24.2,11.7
		c7.7,4.8,15.1,10.4,22.1,16.6c7.1,6.2,14.1,12.6,21.1,19c3.9,3.7,7.7,7.2,11.4,10.7c3.7,3.5,7.6,6.9,11.7,10.2
		c2.4-2.6,5-5.1,7.5-7.5c2.6-2.4,5.1-4.9,7.7-7.4c5.7-5.3,11.5-10.2,17.5-14.5c6-4.3,12.1-7.9,18.1-10.9c6.1-3,12.1-5.3,18.2-7
		C378,23.7,384,22.9,389.8,22.9z M169.6,179.3c3.8-4.5,7.9-9.7,12.2-15.9c4.3-6.1,9-12.7,13.9-19.7c5.6-8,11.4-16.3,17.5-25
		c6.1-8.6,12.5-17,19.2-25.2c6.7-8.2,13.6-15.8,20.6-22.9c7.1-7.1,14.3-13.1,21.6-18c-6.6-6-13.2-11.8-19.8-17.4
		c-6.6-5.6-13.5-10.5-20.6-14.9c-7.1-4.3-14.5-7.8-22.3-10.4c-7.8-2.6-16.1-3.8-24.9-3.8c-7.5,0-14.7,1-21.8,3
		c-7.1,2-13.8,4.8-20,8.5c-6.3,3.7-12,8.1-17.2,13.3c-5.2,5.2-9.6,11-13.3,17.5h2.2c12.3,0,24.3,1.8,36.1,5.3
		c11.8,3.5,23.9,8.4,36.4,14.8l-0.7,1.5c-10.8-4.5-21.8-8-32.9-10.8c-11.1-2.7-22.7-4.1-34.6-4.1c-1.7,0-3.4,0-5.1,0
		c-1.7,0-3.4,0.1-4.9,0.3c-2.4,5-4.2,10.1-5.5,15.3c-1.3,5.2-2,10.8-2,16.8c0,8,1.3,15.3,3.8,21.9c2.6,6.6,6.2,12.2,10.9,17
		c4.7,4.7,10.4,8.4,17.1,11c6.7,2.6,14.1,3.9,22.4,3.9c9,0,17.2-2.2,24.5-6.6c7.3-4.4,13.7-10.3,19.1-17.8l1.3,0.7
		c-2.5,4.5-5.3,8.5-8.7,12.2c-3.3,3.7-7,6.9-11,9.5c-4,2.7-8.4,4.8-13.1,6.3c-4.7,1.5-9.7,2.3-15,2.3c-8.6,0-16.6-1.4-24.1-4.1
		c-7.5-2.7-14-6.7-19.5-11.8c-5.6-5.1-9.9-11.4-13.1-18.9c-3.2-7.5-4.8-15.9-4.8-25.2c0-5.1,0.6-10.3,1.8-15.6
		c1.2-5.3,2.7-10.3,4.6-15c-3.3,0.7-6.7,1.5-10.2,2.5c-3.5,1-7.1,2.3-11,3.8c-9.4,4.1-18.3,9.5-26.7,16.2
		c-8.5,6.7-15.9,14.4-22.4,23.1c-6.5,8.7-11.6,18.1-15.5,28.3s-5.8,20.9-5.8,32c0,10.7,1.8,20.3,5.5,28.8c3.7,8.5,8.7,15.8,15,21.7
		c6.4,6,13.7,10.5,22.1,13.7c8.4,3.2,17.2,4.8,26.6,4.8c9.4,0,18.3-1.5,26.9-4.4c8.6-3,16.7-6.9,24.4-11.9c7.7-5,14.9-10.6,21.7-17
		C157.6,192.6,163.9,186.1,169.6,179.3z M389.6,26.2c-5.2,0-10.7,0.9-16.3,2.6c-5.6,1.7-11.3,4.2-17.1,7.4
		c-5.8,3.2-11.5,7-17.2,11.5c-5.7,4.5-11.1,9.5-16.4,15c-2.2,2.4-4.5,5-6.7,7.6c-2.2,2.6-4.5,5.2-6.7,7.8c5,3.9,10.2,7.5,15.5,10.9
		c5.3,3.3,10.8,6.3,16.5,8.8c5.7,2.5,11.8,4.5,18,5.8c6.3,1.4,12.9,2.1,19.8,2.1c7.2,0,14-1.3,20.2-3.8c6.2-2.5,11.7-5.8,16.3-9.9
		c4.6-4.1,8.2-8.7,10.9-14c2.6-5.2,3.9-10.6,3.9-16.2c0-4.2-0.8-8.5-2.5-12.7c-1.7-4.2-4.2-8-7.6-11.4c-3.4-3.4-7.7-6.2-12.8-8.3
		C402.4,27.3,396.4,26.2,389.6,26.2z" />
		<path class="st0" d="M326.6,196.5c0,2.5,1.1,4.2,3.4,5.3c2.3,1.1,4.8,1.6,7.4,1.6c5,0,10.1-1.2,15.1-3.7c5.1-2.4,10-5.6,14.8-9.4
		c4.8-3.8,9.3-8,13.6-12.7c4.3-4.7,8.2-9.2,11.6-13.5l2.2,2.5c-3.5,4.3-7.4,8.9-11.7,13.6c-4.3,4.7-9,9.1-14,12.9
		c-5,3.9-10.2,7.1-15.6,9.7c-5.5,2.6-10.9,3.8-16.4,3.8c-2.3,0-4.7-0.3-7.1-1c-2.4-0.7-4.6-1.7-6.5-3.1c-1.9-1.4-3.6-3.2-4.8-5.4
		c-1.3-2.2-1.9-4.9-1.9-8c0-6.1,1.6-12.7,4.8-19.8c3.2-7.1,7.4-13.9,12.8-20.5c3.1-3.8,6.5-7.4,10.2-10.7c3.7-3.3,7.5-6.3,11.4-8.9
		c4-2.6,8-4.6,12-6.1c4.1-1.5,8-2.3,11.8-2.3c1.3,0,2.8,0.1,4.3,0.2c1.6,0.2,3,0.5,4.4,1c1.4,0.5,2.5,1.3,3.4,2.4
		c0.9,1.1,1.3,2.6,1.3,4.3c0,2.2-0.7,4.5-2,6.9c-1.3,2.3-3,4.6-4.9,6.8c-2,2.2-4,4.2-6.2,6s-4,3.3-5.6,4.4c-5,3.6-10.4,6.6-16.1,9.1
		c-5.7,2.5-11.2,3.8-16.5,3.9c-2.2,3.1-4.3,6.2-6.1,9.2c-1.8,3-3.5,5.8-4.8,8.4c-1.4,2.6-2.5,5-3.3,7.3
		C327,193.2,326.6,195,326.6,196.5z M384.8,124.6c-3.1,0-6.8,1.6-10.9,4.8c-4.2,3.2-8.2,7-12.1,11.4c-3.5,3.9-6.7,7.7-9.7,11.5
		c-3,3.8-5.6,7.2-7.9,10.4c4.7-0.6,9.5-2,14.6-4.3c5.1-2.3,9.8-5,14.1-8.1c1.4-1.1,3.1-2.5,5.1-4.2c1.9-1.7,3.8-3.5,5.6-5.4
		c1.8-1.9,3.3-4,4.6-6c1.3-2.1,1.9-3.9,1.9-5.6c0-1.6-0.6-2.7-1.7-3.4C387.3,125,386.1,124.6,384.8,124.6z" />
		<path class="st0" d="M808.8,18c4.2,0,7.4,1.3,9.5,3.8c2.1,2.5,3.2,5.4,3.2,8.6c0,6.4-1.7,12.7-5,18.9c-3.3,6.2-7.6,12.3-12.9,18.3
		c-5.2,6-11,11.7-17.4,17.3c-6.3,5.6-12.6,10.9-18.7,16l-7.4,6.2c-7.1,18.3-14.9,35.3-23.4,51c-8.5,15.7-17.9,29.5-28.4,41.5
		c-10,11-21.1,20.4-33.3,28c-12.2,7.6-25.1,13.8-38.6,18.6c-13.5,4.8-27.6,8.3-42.1,10.4c-14.5,2.2-29.2,3.3-44,3.3
		c-9.7,0-18.6-0.9-26.6-2.8c-8.1-1.8-15.5-4.2-22.1-6.9c-12.9,3.5-25.9,6.4-38.8,8.8c-13,2.4-26.1,4-39.5,4.7v-4.7
		c12.5-0.6,24.9-1.7,37.2-3.5c12.3-1.8,24.5-4.2,36.7-7.4c-7-3.6-13.3-7.8-18.8-12.6c-5.5-4.9-10.1-10.1-13.8-15.8
		c-3.9-6-7-12.7-9.2-20c-2.2-7.3-3.3-15.4-3.3-24.3c0-13.9,3.1-27.9,9.2-41.8c5.9-13.3,13.8-24.9,23.7-35
		c9.9-10.1,21.1-18.5,33.4-25.3s25.5-11.9,39.4-15.4c13.9-3.5,27.8-5.2,41.8-5.2c5.7,0,11.5,0.4,17.5,1.3c6,0.9,11.8,2.3,17.5,4.3
		c5.6,1.9,10.9,4.4,15.9,7.4c5,3,9.3,6.5,13,10.7c3.7,4.2,6.7,9,8.9,14.5c2.2,5.5,3.3,11.6,3.3,18.4c0,5.5-1,10.7-3.1,15.9
		c-2.1,5.1-4.8,9.9-8.4,14.3c-3.5,4.4-7.6,8.4-12.3,11.9c-4.7,3.6-9.6,6.5-14.9,8.7l-0.8-1.5c4-2.7,7.7-5.8,11.1-9.3
		c3.4-3.5,6.3-7.4,8.8-11.5c2.4-4.2,4.4-8.6,5.8-13.3c1.4-4.7,2.1-9.5,2.1-14.4c0-9-2-16.8-6.1-23.5c-4.1-6.6-9.4-12.1-16-16.4
		c-6.6-4.3-14-7.5-22.4-9.6c-8.4-2.1-16.9-3.2-25.6-3.2c-13,0-26,1.8-39,5.3c-13,3.6-25.3,8.7-36.8,15.4
		c-11.6,6.7-22,14.8-31.3,24.4c-9.3,9.6-16.8,20.4-22.5,32.4c-2.9,6.7-5.1,13.4-6.7,20.2c-1.6,6.8-2.3,13.5-2.3,20.2
		c0,8.7,1,16.5,3.1,23.3c2.1,6.9,5,13.2,8.8,19.1c3.8,5.9,8.7,11.3,14.6,16.3c6,5,12.8,9.2,20.5,12.6c19.3-5.2,38.1-11.6,56.5-19.2
		c18.4-7.6,36.4-15.9,54-25.1c13.5-7,26.6-14.3,39.3-22c12.8-7.6,25-15.4,36.8-23.4c11.8-8,23-15.9,33.6-23.9
		c10.6-8,20.5-15.8,29.7-23.5c2.4-4.8,4.9-10.2,7.4-16.3c2.4-6.1,4.9-12.3,7.4-18.6c2.8-7.2,5.6-14.3,8.4-21.1s5.9-12.9,9.2-18.2
		c3.3-5.3,6.9-9.5,10.9-12.7C799.3,19.6,803.8,18,808.8,18z M665.5,213.7c16.9-13,32.3-27.8,46.2-44.3c13.9-16.5,26-33.9,36.3-52.3
		c-8.9,7.2-18.5,14.6-28.7,22.2c-10.2,7.6-21,15.1-32.2,22.6c-11.3,7.5-23,14.9-35.3,22.2c-12.3,7.3-24.9,14.3-37.9,21
		c-17.4,9-35,17.2-52.8,24.6c-17.8,7.4-35.9,13.6-54.3,18.9c6.2,2.3,13,4.3,20.2,5.8c7.2,1.5,15,2.3,23.4,2.3
		c10.9,0,21.5-1.1,31.7-3.2c10.2-2.1,20.2-5.1,29.8-8.9c9.6-3.8,18.9-8.3,27.8-13.5C648.7,225.8,657.2,220,665.5,213.7z M767.7,96.6
		c3.2-2.7,6.7-5.6,10.5-8.9c3.8-3.2,7.6-6.6,11.4-10.2c3.8-3.6,7.4-7.2,10.9-11c3.5-3.8,6.5-7.7,9.1-11.7c2.6-4,4.7-8,6.4-12.1
		c1.6-4.1,2.4-8.2,2.4-12.3c0-2.4-0.8-4.6-2.4-6.4c-1.6-1.8-4-2.8-7.1-2.8c-4.5,0-8.6,1.9-12.4,5.8c-3.8,3.8-7.3,8.7-10.5,14.5
		c-3.2,5.8-6.2,12.3-8.8,19.2c-2.6,7-5,13.6-7.1,19.8c-1.2,3.6-2.4,7.1-3.6,10.6c-1.2,3.5-2.4,6.7-3.6,9.6L767.7,96.6z" />
		<path class="st0" d="M812.7,120.5h-16.5v-4.7H816l19.9-27.7h20.7l-13.7,17.9l-7.4,9.9h16v4.7h-19.9c-5.3,7-10.4,13.9-15.2,20.7
		c-4.8,6.8-10,14.2-15.7,22.2c-1.7,2.3-3.5,4.9-5.4,7.8c-2,2.8-3.8,5.7-5.4,8.6c-1.7,2.9-3.1,5.7-4.3,8.5c-1.2,2.8-1.8,5.3-1.8,7.5
		c0,2,0.6,3.7,1.8,5c1.2,1.3,3.2,2,6.1,2c3.8,0,8-1.7,12.7-5.1c4.7-3.4,9.5-7.7,14.4-12.9c2.7-3,5.6-6.3,8.7-10
		c3.1-3.7,6-7.2,8.7-10.7l2.2,2.5c-2.7,3.5-5.5,7-8.4,10.5c-3,3.6-5.8,6.9-8.6,9.9c-5.3,5.7-10.6,10.3-15.7,14
		c-5.1,3.6-10,5.4-14.7,5.4c-5.5,0-9.7-1.4-12.6-4.1c-3-2.7-4.4-6.5-4.4-11.4c0-2.7,0.4-5.4,1.3-8.1c0.8-2.7,1.9-5.4,3.1-8.1
		c1.2-2.7,2.6-5.3,4.2-7.9c1.6-2.6,3.1-5,4.5-7.4c1.4-2.3,2.6-4.2,3.4-5.6c0.8-1.4,1.6-2.7,2.4-3.9c0.8-1.2,1.6-2.5,2.5-3.8
		c0.9-1.3,2.1-3.1,3.7-5.3c-2.6,3.1-5.1,6.2-7.7,9.3c-2.6,3.1-5.1,6.2-7.7,9.4l-7.2,8.9l-2.2-2.5c3.3-4.1,6.9-8.4,10.6-12.9
		c3.7-4.5,7.3-8.8,10.7-12.9c3.4-4.1,6.5-7.7,9.4-11c2.9-3.3,5.2-5.8,7-7.4L812.7,120.5z" />
		<path class="st0" d="M878.5,189.6c-1.8,0-3.3-0.6-4.4-1.9c-1.2-1.3-2-2.7-2.4-4.3c-2.5,2.7-5,5.2-7.5,7.6c-2.6,2.4-5.1,4.7-7.7,6.8
		c-3.3,2.7-6.6,4.8-9.8,6.4c-3.2,1.6-5.9,2.4-8.1,2.4c-3.9,0-6.7-1.3-8.4-4c-1.7-2.7-2.5-5.7-2.5-9c0-6.3,1.4-13.2,4.2-20.6
		c2.8-7.4,6.6-14.5,11.4-21.1c3.1-4.3,6.6-8.4,10.4-12.1c3.8-3.7,7.8-7,11.9-9.8c4.2-2.8,8.4-5,12.8-6.6c4.3-1.6,8.6-2.4,12.9-2.4
		c3.1,0,5.6,0.8,7.4,2.3c1.8,1.5,2.8,4,2.8,7.6c0,3-0.6,6.1-1.8,9.4c-1.2,3.2-2.5,6.3-3.8,9.2c-1.7,3.2-3.4,6.3-5.2,9.2
		c-1.8,2.9-3.6,5.6-5.3,8.2c-3.3,4.6-7,9.2-10.9,13.9c0.1,1.4,0.5,2.8,1.2,4c0.7,1.2,1.7,1.8,3,1.8c1.9,0,4.1-0.9,6.6-2.6
		c2.5-1.7,5-3.8,7.4-6.2c2.4-2.4,4.8-4.9,6.9-7.4c2.2-2.6,3.9-4.6,5.3-6.2l2.2,2.5c-1.2,1.7-3,3.8-5.2,6.3c-2.2,2.6-4.7,5.1-7.4,7.6
		s-5.4,4.7-8.2,6.4C883.4,188.7,880.8,189.6,878.5,189.6z M854.6,195.3c2.4-2.1,5.1-4.5,8-7.3c2.9-2.7,5.7-5.7,8.5-8.8
		c0-3.3,0.6-6.7,1.8-10.1c1.2-3.4,2.8-6.7,4.8-9.8c2-2.9,4.4-5.5,7.2-7.9c2.8-2.3,5.7-3.7,8.7-4.2c1.3-2.8,2.5-5.5,3.4-8.3
		c0.9-2.7,1.4-5.4,1.4-8.1c0-1.4-0.3-2.9-1-4.3c-0.7-1.4-1.8-2.1-3.5-2.1c-2.3,0-5,1.1-8,3.4c-3,2.3-6.2,5.2-9.4,8.6
		c-3.3,3.5-6.5,7.3-9.8,11.4c-3.2,4.2-6.2,8.1-8.9,11.8c-3.1,4.2-6,8.4-8.7,12.5c-2.7,4.1-5,8-6.9,11.7c-1.9,3.7-3.5,7-4.6,9.9
		c-1.1,3-1.7,5.4-1.7,7.3c0,0.8,0.3,1.3,0.8,1.6c0.6,0.3,1.2,0.4,1.8,0.4c2,0,4.4-0.8,7.3-2.3C848.7,199.6,851.6,197.7,854.6,195.3z
		" />
		<path class="st0" d="M974.1,166.6c-3.1,3.9-6.2,7.7-9.4,11.4c-3.1,3.7-6.1,7.2-9,10.3c-5.1,5.3-10.1,9.7-15,13.2
		c-4.9,3.5-9.5,5.2-13.9,5.2c-1.9,0-3.8-0.2-5.8-0.5c-1.9-0.3-3.7-0.9-5.3-1.8c-1.6-0.8-3-2-4-3.5c-1.1-1.5-1.6-3.4-1.6-5.8
		c0-2.6,0.5-5.2,1.5-7.9c1-2.7,2.3-5.3,3.8-7.9c1.6-2.6,3.3-5.2,5.1-7.6c1.8-2.4,3.6-4.8,5.4-7l5-6.5c0.7-1,1.5-2.1,2.5-3.3
		c1-1.2,1.9-2.4,2.8-3.5c1.6-1.9,3.1-3.9,4.7-6c1.6-2.1,3-4.2,4.3-6.3c1.3-2.1,2.3-4,3.2-5.8c0.8-1.8,1.3-3.5,1.3-5.1
		c0-1.6-0.8-3.1-2.3-4.5c-1.6-1.4-3.3-2.4-5.3-2.8l-21.7,28.4c-3,4-5.7,7.6-8.2,10.8c-2.5,3.2-4.6,5.9-6.5,8.3l-2.2-2.5l35.3-45.6
		c-1.8-0.8-3.1-1.9-4-3.4c-0.9-1.5-1.3-3.1-1.3-4.8c0-2.1,0.8-4.1,2.5-6.1c1.7-1.9,4.5-3.2,8.4-3.8v2.2c0,1.4,0.2,3,0.6,4.6
		c0.4,1.6,0.9,3.1,1.4,4.6c0.6,1.4,1.2,2.8,1.8,4c0.7,1.2,1.3,2.2,2,2.8c4.9,4.2,7.4,9.3,7.4,15.2c0,2.8-0.4,5.7-1.3,8.6
		c-0.9,3-2.1,5.9-3.5,8.8c-1.4,2.9-3,5.7-4.7,8.4c-1.7,2.7-3.2,5.2-4.7,7.4c-5.2,7.9-9.5,14.6-12.9,20.1c-3.3,5.5-5.1,9.6-5.2,12.1
		c0,1.6,0.8,2.3,2.3,2.3c3.6,0,7.7-1.8,12.3-5.3c4.6-3.5,9.2-7.6,13.8-12.3c3-3.2,6-6.7,9.1-10.4s6.2-7.5,9.3-11.4L974.1,166.6z" />
		<path class="st0" d="M985.3,203.3c4.6,0,9.3-2,14.2-6c4.9-4,9.9-9,14.9-14.9c1.6-1.7,3-3.4,4.4-5.2c1.4-1.8,2.8-3.6,4.3-5.5
		l2.7-3.3c0.9-1.1,1.9-2.4,3-3.9c1.1-1.5,2.8-3.9,5.1-7.2c2.3-3.3,5.4-7.8,9.3-13.5c3.9-5.7,9-13.2,15.4-22.6h21.6l-16.2,21.2
		c-1.7,2.3-3.8,5.3-6.4,9c-2.6,3.7-5.5,7.7-8.7,12.1c-3.2,4.4-6.5,9.1-10.1,14.1c-3.6,5-7.1,10-10.5,15c-1.4,2-3,4.2-4.5,6.6
		c-1.6,2.4-3.2,4.9-5,7.4c-0.9,1.6-1.6,2.7-2.1,3.4c-0.5,0.7-1.4,1.9-2.6,3.6c10.1-4.6,19.8-10.4,29-17.5c9.2-7.1,17.3-14.7,24.3-23
		c1.1-1.4,2.4-3,3.8-4.7c1.4-1.7,2.6-3.2,3.8-4.7l2.2,2.5l-3,3.8c-0.6,0.9-1.2,1.8-2,2.7c-0.8,0.9-1.5,1.7-2.2,2.5
		c-3.8,4.3-8,8.7-12.7,12.9c-4.7,4.3-9.6,8.4-14.7,12.2c-5.1,3.8-10.4,7.4-15.9,10.6c-5.5,3.2-10.9,6-16.2,8.2
		c-3.1,4.6-6.3,9.3-9.7,14.1c-3.3,4.8-6.8,9.6-10.4,14.2c-3.6,4.6-7.2,9.1-11,13.4c-3.8,4.3-7.6,8.2-11.5,11.8
		c-2.3,2.1-4.8,4.2-7.4,6.3c-2.6,2.1-5.4,3.9-8.3,5.5c-2.9,1.6-5.9,2.9-9,3.9c-3.1,1-6.3,1.5-9.7,1.5c-3.7,0-6.8-1.1-9.5-3.4
		c-2.7-2.3-4-5.4-4-9.4c0-3.5,0.8-6.9,2.3-10.4c1.5-3.5,3.4-6.5,5.6-9.2c2.2-2.7,4.9-5.5,8.1-8.4c3.2-3,6.9-5.7,11.1-8.3
		c3.1-1.9,6.4-3.7,9.9-5.3c3.5-1.7,6.9-3.2,10.4-4.6c3.5-1.4,6.9-2.7,10.2-3.8c3.3-1.2,6.5-2.3,9.4-3.3l7.5-2.3c2-3.2,4-6.4,5.9-9.6
		c1.9-3.2,3.8-6.2,5.4-8.9l10.5-17l1.5-2.2l-0.5,0.7c-2.6,3.1-5.2,6-7.9,8.7c-2.7,2.7-5.3,5-8,7c-2.7,2-5.3,3.6-8,4.7
		c-2.7,1.1-5.3,1.7-8,1.7c-6.3,0-10.8-1-13.3-3.1c-2.5-2.1-3.8-4.8-3.8-8.1c0-2.1,0.5-4.5,1.5-7.3c1-2.7,2.4-5.6,4.2-8.6
		c1.8-3,3.8-6.1,6-9.3c2.2-3.2,4.6-6.4,7.2-9.6l7.5-9.4c2-2.4,4-5,6.1-7.6c2.1-2.6,3.9-5.1,5.5-7.4c1.6-2.3,3-4.3,4-6.2
		c1.1-1.8,1.6-3.3,1.6-4.3c0-0.9-0.4-1.3-1.2-1.3c-1,0-2.4,0.7-4.1,2.2c-1.7,1.4-3.7,3.5-5.9,6c-2.2,2.6-4.7,5.5-7.3,8.9
		c-2.6,3.4-5.4,7-8.3,10.8c-1.9,2.5-3.9,5-5.9,7.8c-2.1,2.7-4.1,5.4-6.1,7.9l-2.2-2.5c1.9-2.4,3.9-5,5.9-7.7c2.1-2.7,4-5.2,5.8-7.5
		c3-4,5.9-7.8,8.6-11.3c2.7-3.5,5.3-6.6,7.7-9.3c2.4-2.7,4.7-4.8,6.8-6.4c2.1-1.6,4-2.3,5.7-2.3c2.8,0,5,0.8,6.5,2.4
		c1.6,1.6,2.3,3.8,2.3,6.6c0,4.7-2.1,10.6-6.2,17.9c-4.1,7.2-9.2,15.5-15.2,24.7c-2,3-4,6-5.8,8.9c-1.9,2.9-3.5,5.6-4.9,8
		c-1.4,2.5-2.5,4.7-3.4,6.6c-0.9,2-1.3,3.5-1.3,4.8C982.9,202.6,983.7,203.3,985.3,203.3z M963,265.8c4.7-5.6,9.5-11.9,14.4-18.9
		c4.9-7,9.5-13.9,13.7-20.6c-0.4,0.2-0.9,0.4-1.3,0.4c-0.4,0.1-0.8,0.1-1.1,0.2l-1.5,0.3h0.3c-6.7,2.1-13.2,4.4-19.6,6.9
		c-6.4,2.4-12.8,5.7-19.3,9.7c-3.9,2.4-7.4,5.1-10.6,7.9c-3.2,2.8-5.8,5.5-7.9,8c-1.9,2.4-3.6,5.2-5.1,8.2c-1.5,3-2.3,6.2-2.3,9.5
		c0,2.6,0.9,4.8,2.7,6.6c1.8,1.8,4.1,2.8,7,2.8c2.9,0,5.8-0.7,8.7-2.2c2.9-1.5,5.7-3.2,8.4-5.3c2.7-2.1,5.2-4.4,7.5-6.9
		C959.4,270.1,961.4,267.8,963,265.8z" />
	</g>
	<g>
		<path d="M534.3,298c8.1,0,15.7,2.3,22.6,6.9c6.2,4.1,10.9,9.4,14.1,16c2.5,5.3,3.7,10.9,3.7,16.7c0,10.2-3.5,19-10.5,26.5
		c-3.7,3.9-8,7-12.9,9.3c-5.5,2.5-11.1,3.8-16.9,3.8c-8.3,0-15.8-2.3-22.8-6.9c-6.2-4.1-10.8-9.5-14-16c-2.5-5.3-3.8-11-3.8-17.1
		c0-6.6,1.7-12.9,5.2-18.9c3.6-6.3,8.7-11.3,15.4-15C520.6,299.8,527.2,298,534.3,298z M534.3,305.1c-9.1,0-16.9,3.3-23.3,9.9
		c-3,3.1-5.3,6.6-7,10.7c-1.6,4-2.4,7.9-2.4,11.7c0,8.3,2.7,15.5,8,21.6c3,3.5,6.7,6.2,10.9,8.2c4.4,2.1,9,3.1,13.8,3.1
		c6.6,0,12.7-1.9,18.4-5.8c5-3.4,8.7-7.9,11.3-13.4c1.9-4.2,2.9-8.7,2.9-13.3c0-6-1.6-11.5-4.7-16.7c-3.1-5.3-7.4-9.4-12.9-12.3
		C544.6,306.3,539.6,305.1,534.3,305.1z" />
		<path d="M589.8,375.9v-49.7H581v-6.9h8.8c0.2-3.2,0.4-5.6,0.7-7.1c0.3-1.5,0.9-3,1.7-4.3c3.4-5.6,9.8-8.5,19.3-8.5v6.9
		c-5.8,0.1-9.7,1.3-11.7,3.8c-1.5,1.7-2.2,4.8-2.3,9.2h14.1v6.9h-14.1v49.7H589.8z" />
		<path d="M711.7,355.8h8.5c-7.7,14.3-19.4,21.4-35.1,21.4c-10.8,0-20-3.5-27.7-10.5c-8.3-7.6-12.5-17.3-12.5-28.9
		c0-11.8,4-21.5,12-29.1c7.5-7.1,16.7-10.7,27.6-10.7c8,0,15.1,1.9,21.4,5.7c6.3,3.8,10.9,9,13.9,15.6h-8.5c-2.6-4-5.4-7.1-8.3-9.1
		c-5.2-3.4-11.2-5.2-18-5.2c-9.3,0-17,3.2-23.1,9.5c-3,3.1-5.2,6.6-6.8,10.7c-1.6,4-2.3,8.1-2.3,12.4c0,9.3,3.3,17.1,9.9,23.5
		c3.1,3,6.6,5.3,10.6,6.9c3.8,1.5,7.8,2.3,11.8,2.3c7.2,0,13.6-2.1,19-6.3C706.4,362.1,709,359.4,711.7,355.8z" />
		<path d="M731.2,375.9v-56.6h7.7v8.1c1.7-3.2,3.7-5.5,6.1-7c2.4-1.4,5.7-2.3,9.9-2.5v7.6c-10.7,1-16,6.8-16,17.4v33H731.2z" />
		<path d="M815.8,350.1h-51.2c0.2,4.2,1.8,8.1,4.6,11.8c2,2.6,4.6,4.6,7.7,6.1c3.1,1.5,6.3,2.2,9.8,2.2c4.3,0,8.3-1.2,11.9-3.6
		c3.6-2.4,6.2-5.5,7.9-9.4h8c-1.6,4.6-4.4,8.8-8.3,12.5c-5.3,5-11.8,7.5-19.3,7.5c-8.6,0-15.8-3-21.6-9.1
		c-5.5-5.8-8.3-12.7-8.3-20.8c0-8.3,2.9-15.3,8.6-21c5.7-5.6,12.6-8.4,20.7-8.4c6.8,0,12.9,2,18.2,6.1c5.7,4.3,9.2,10,10.6,17
		C815.5,343.4,815.8,346.5,815.8,350.1z M808.2,343.2c-1.1-4.9-3.2-8.8-6.1-11.7c-4.2-4.3-9.5-6.5-15.9-6.5c-5.4,0-10,1.7-14,5
		c-3.9,3.4-6.4,7.8-7.5,13.2H808.2z" />
		<path d="M884.2,319.3v56.6h-7.7v-10c-3,4.1-6.2,7-9.6,8.7c-3.3,1.7-7.4,2.6-12.2,2.6c-8.7,0-15.9-2.8-21.6-8.3
		c-5.8-5.7-8.8-12.7-8.8-21.2c0-8.1,2.6-14.9,7.9-20.6c5.7-6.2,13-9.3,21.9-9.3c5,0,9.2,0.9,12.8,2.7c3.6,1.8,6.8,4.7,9.6,8.7v-10
		H884.2z M854.3,324.9c-6.2,0-11.5,2.2-15.8,6.5c-2,2-3.5,4.4-4.7,7.1c-1.2,2.9-1.8,5.7-1.8,8.6c0,6.4,2.1,11.8,6.3,16.1
		c4.4,4.6,9.8,6.9,16.4,6.9c6.1,0,11.3-2.2,15.5-6.6c4.2-4.5,6.3-9.9,6.3-16.3c0-6.4-2.1-11.7-6.2-15.8
		C865.8,327.1,860.5,324.9,854.3,324.9z" />
		<path d="M904.6,375.9v-49.7h-12.2v-6.9h12.2v-19.9h7.7v19.9h12.7v6.9h-12.7v49.7H904.6z" />
		<path d="M933.1,312.4v-13h7.7v13H933.1z M933.1,375.9v-56.6h7.7v56.6H933.1z" />
		<path d="M981.4,317.9c9.1,0,16.5,3.2,22.1,9.5c4.9,5.5,7.3,12.3,7.3,20.3c0,8.8-3,16-8.9,21.7c-5.3,5.2-12,7.8-19.9,7.8
		c-8.7,0-15.8-2.7-21.5-8.2c-5.9-5.7-8.9-13-8.9-21.8c0-5.7,1.5-10.9,4.5-15.8c2.8-4.5,6.6-8,11.4-10.4
		C971.6,319,976.3,317.9,981.4,317.9z M981.4,324.9c-3,0-6,0.6-8.8,1.7c-2.8,1.1-5.2,2.7-7.1,4.8c-1.8,1.9-3.3,4.3-4.4,7.3
		s-1.7,5.9-1.7,8.8c0,6.7,2.1,12.2,6.3,16.4c4.2,4.2,9.5,6.4,16.1,6.4c6.2,0,11.3-2.2,15.3-6.5c3.9-4.2,5.9-9.5,5.9-16
		c0-6.5-1.9-11.9-5.8-16C993,327.2,987.7,324.9,981.4,324.9z" />
		<path d="M1021.7,375.9v-56.6h7.7v7.3c4.8-5.8,10.8-8.7,18.2-8.7c8.3,0,14.7,3,19.3,8.9c1.9,2.4,3.2,5,3.9,7.9
		c0.7,2.9,1.1,6.7,1.1,11.5v29.7h-7.7v-29.7c0-3.7-0.3-6.8-0.9-9.1c-0.6-2.3-1.5-4.3-2.9-6c-3.2-4.1-7.8-6.2-13.8-6.2
		c-6.3,0-11.1,2.3-14.3,6.9c-1.1,1.6-1.9,3.4-2.3,5.3c-0.4,1.9-0.7,4.5-0.7,7.7v31.1H1021.7z" />
	</g>
</svg>
